{"title":"Keeping Mum x264 RB58.mp4","uid":9926155,"size":715157442,"categoryP":"video","categoryS":"movies","magnet":"?xt=urn:btih:69b4f34074d6ae13881121eaa7c23a6d9b74c98d&amp;dn=Keeping+Mum+x264+RB58.mp4&amp;tr=udp%3A%2F%2Ftracker.openbittorrent.com%3A80&amp;tr=udp%3A%2F%2Fopen.demonii.com%3A1337&amp;tr=udp%3A%2F%2Ftracker.coppersurfer.tk%3A6969&amp;tr=udp%3A%2F%2Fexodus.desync.com%3A6969","seeders":1,"leechers":0,"uploader":"RedBaron58","files":1,"time":1397069572,"description":"Keeping Mum (2005) DVDRip x264 mp4\n\nBritish Black Comedy starring Rowan Atkinson, Maggie Smith and Patrick Swayze.\n  &lt;a href=&quot;\nhttp://www.imdb.com/title/tt0444653/&quot; rel=&quot;nofollow&quot; target=&quot;_NEW&quot;&gt;\nhttp://www.imdb.com/title/tt0444653/&lt;/a&gt;\n\n\nPlease be patient My upload speed is limited, but I am online most the time and during the night.\nThank you for your kind comments and thumbs ups on my other torrents, your feedback is welcome.\n\n\nAbout the Film:\nThe well-meaning but rather dull Reverend Walter Goodfellow, vicar of Little Wallop, spends all \nhis energies on his sermons. As a result he fails to notice the unsuitability of his daughter's \nboyfriends, his son is struggling to make any friends at school and his wife conducting a half-hearted \naffair with her suave golf teacher Lance.\n\nBut everything changes when the Goodfellows get a sweet new housekeeper, Grace Hawkins. \nHowever, it soon transpires that in her spare time Grace is a psychopathic serial killer, \nand she is using her 'hobby' to rid the family of those causing them problems!\n\n\nI hope you enjoy.\n\n\nTechnical:\n\nGeneral\nComplete name                            : G:Keeping Mum x264 RB58.mp4\nFormat                                   : MPEG-4\nFormat profile                           : Base Media / Version 2\nCodec ID                                 : mp42\nFile size                                : 682 MiB\nDuration                                 : 1h 38mn\nOverall bit rate mode                    : Variable\nOverall bit rate                         : 964 Kbps\nEncoded date                             : UTC 2014-04-09 10:56:16\nTagged date                              : UTC 2014-04-09 11:16:43\nWriting application                      : HandBrake 0.9.8 2012071700\n\nVideo\nID                                       : 1\nFormat                                   : AVC\nFormat/Info                              : Advanced Video Codec\nFormat profile                           : &lt;a class=&quot;__cf_email__&quot; href=&quot;/cdn-cgi/l/email-protection&quot; data-cfemail=&quot;3f725e56517f730c110f&quot;&gt;[email&amp;#160;protected]&lt;/a&gt;&lt;script cf-hash='f9e31' type=&quot;text/javascript&quot;&gt;\n/* &lt;![CDATA[ */!function(){try{var t=&quot;currentScript&quot;in document?document.currentScript:function(){for(var t=document.getElementsByTagName(&quot;script&quot;),e=t.length;e--;)if(t[e].getAttribute(&quot;cf-hash&quot;))return t[e]}();if(t&amp;&amp;t.previousSibling){var e,r,n,i,c=t.previousSibling,a=c.getAttribute(&quot;data-cfemail&quot;);if(a){for(e=&quot;&quot;,r=parseInt(a.substr(0,2),16),n=2;a.length-n;n+=2)i=parseInt(a.substr(n,2),16)^r,e+=String.fromCharCode(i);e=document.createTextNode(e),c.parentNode.replaceChild(e,c)}}}catch(u){}}();/* ]]&gt; */&lt;/script&gt;\nFormat settings, CABAC                   : Yes\nFormat settings, ReFrames                : 4 frames\nCodec ID                                 : avc1\nCodec ID/Info                            : Advanced Video Coding\nDuration                                 : 1h 38mn\nBit rate mode                            : Variable\nBit rate                                 : 800 Kbps\nWidth                                    : 720 pixels\nHeight                                   : 438 pixels\nDisplay aspect ratio                     : 2.35:1\nFrame rate mode                          : Constant\nFrame rate                               : 25.000 fps\nColor space                              : YUV\nChroma subsampling                       : 4:2:0\nBit depth                                : 8 bits\nScan type                                : Progressive\nBits/(Pixel*Frame)                       : 0.101\nStream size                              : 566 MiB (83%)\nWriting library                          : x264 core 120\nEncoding settings                        : cabac=1 / ref=1 / deblock=1:0:0\nEncoded date                             : UTC 2014-04-09 10:56:16\nTagged date                              : UTC 2014-04-09 11:16:43\nColor primaries                          : BT.601 NTSC\nTransfer characteristics                 : BT.709\nMatrix coefficients                      : BT.601\n\nAudio\nID                                       : 2\nFormat                                   : AAC\nFormat/Info                              : Advanced Audio Codec\nFormat profile                           : LC\nCodec ID                                 : 40\nDuration                                 : 1h 38mn\nBit rate mode                            : Variable\nBit rate                                 : 160 Kbps\nMaximum bit rate                         : 203 Kbps\nChannel(s)                               : 2 channels\nChannel positions                        : Front: L R\nSampling rate                            : 48.0 KHz\nCompression mode                         : Lossy\nDelay relative to video                  : 80ms\nStream size                              : 113 MiB (17%)\nLanguage                                 : English\nEncoded date                             : UTC 2014-04-09 10:56:16\nTagged date                              : UTC 2014-04-09 11:16:41","torrent":{"xt":"urn:btih:69b4f34074d6ae13881121eaa7c23a6d9b74c98d","amp;dn":"Keeping+Mum+x264+RB58.mp4","amp;tr":["udp%3A%2F%2Ftracker.openbittorrent.com%3A80","udp%3A%2F%2Fopen.demonii.com%3A1337","udp%3A%2F%2Ftracker.coppersurfer.tk%3A6969","udp%3A%2F%2Fexodus.desync.com%3A6969"],"infoHash":"69b4f34074d6ae13881121eaa7c23a6d9b74c98d","infoHashBuffer":{"type":"Buffer","data":[105,180,243,64,116,214,174,19,136,17,33,234,167,194,58,109,155,116,201,141]},"announce":[],"urlList":[]}}